<svg width="14" height="10" viewBox="0 0 14 10" fill="none" xmlns="http://www.w3.org/2000/svg">
<path id="Arrow 9" d="M1 4.35C0.641015 4.35 0.35 4.64101 0.35 5C0.35 5.35899 0.641015 5.65 1 5.65L1 4.35ZM13.4596 5.45962C13.7135 5.20578 13.7135 4.79422 13.4596 4.54038L9.32304 0.403806C9.0692 0.149965 8.65765 0.149965 8.40381 0.403806C8.14997 0.657647 8.14997 1.0692 8.40381 1.32304L12.0808 5L8.40381 8.67696C8.14997 8.9308 8.14997 9.34235 8.40381 9.59619C8.65765 9.85003 9.0692 9.85003 9.32304 9.59619L13.4596 5.45962ZM1 5.65L13 5.65V4.35L1 4.35L1 5.65Z" fill="#4DA62F"/>
</svg>
