<?xml version="1.0" encoding="utf-8"?>
<!-- Generator: Adobe Illustrator 28.2.0, SVG Export Plug-In . SVG Version: 6.00 Build 0)  -->
<svg version="1.1" id="Layer_1" xmlns="http://www.w3.org/2000/svg" xmlns:xlink="http://www.w3.org/1999/xlink" x="0px" y="0px"
	 viewBox="0 0 100 101" style="enable-background:new 0 0 100 101;" xml:space="preserve">
<style type="text/css">
	.st0{fill:#FFFFFF;}
</style>
<rect x="33.5" y="85.3" class="st0" width="4.7" height="4.7"/>
<rect x="66.5" y="80.6" class="st0" width="4.7" height="4.7"/>
<rect x="38.2" y="80.6" class="st0" width="4.7" height="4.7"/>
<rect x="28.8" y="80.6" class="st0" width="4.7" height="4.7"/>
<rect x="66.5" y="75.9" class="st0" width="4.7" height="4.7"/>
<rect x="42.9" y="75.9" class="st0" width="4.7" height="4.7"/>
<rect x="24.1" y="75.9" class="st0" width="4.7" height="4.7"/>
<rect x="71.2" y="71.2" class="st0" width="4.7" height="4.7"/>
<rect x="61.8" y="71.2" class="st0" width="4.7" height="4.7"/>
<rect x="38.2" y="71.2" class="st0" width="4.7" height="4.7"/>
<rect x="28.8" y="71.2" class="st0" width="4.7" height="4.7"/>
<rect x="75.9" y="66.5" class="st0" width="4.7" height="4.7"/>
<rect x="57.1" y="66.5" class="st0" width="4.7" height="4.7"/>
<rect x="33.5" y="66.5" class="st0" width="4.7" height="4.7"/>
<rect x="85.3" y="61.8" class="st0" width="4.7" height="4.7"/>
<rect x="80.6" y="61.8" class="st0" width="4.7" height="4.7"/>
<rect x="52.3" y="61.8" class="st0" width="4.7" height="4.7"/>
<rect x="47.7" y="61.8" class="st0" width="4.7" height="4.7"/>
<rect x="75.9" y="57.1" class="st0" width="4.7" height="4.7"/>
<rect x="57.1" y="57.1" class="st0" width="4.7" height="4.7"/>
<rect x="28.8" y="57.1" class="st0" width="4.7" height="4.7"/>
<rect x="71.2" y="52.3" class="st0" width="4.7" height="4.7"/>
<rect x="61.8" y="52.3" class="st0" width="4.7" height="4.7"/>
<rect x="28.8" y="52.3" class="st0" width="4.7" height="4.7"/>
<rect x="66.5" y="47.7" class="st0" width="4.7" height="4.7"/>
<rect x="33.5" y="47.7" class="st0" width="4.7" height="4.7"/>
<rect x="24.1" y="47.7" class="st0" width="4.7" height="4.7"/>
<rect x="66.5" y="42.9" class="st0" width="4.7" height="4.7"/>
<rect x="38.2" y="42.9" class="st0" width="4.7" height="4.7"/>
<rect x="19.4" y="42.9" class="st0" width="4.7" height="4.7"/>
<rect x="47.7" y="38.2" class="st0" width="4.7" height="4.7"/>
<rect x="42.9" y="38.2" class="st0" width="4.7" height="4.7"/>
<rect x="14.7" y="38.2" class="st0" width="4.7" height="4.7"/>
<rect x="10" y="38.2" class="st0" width="4.7" height="4.7"/>
<rect x="38.2" y="33.5" class="st0" width="4.7" height="4.7"/>
<rect x="19.4" y="33.5" class="st0" width="4.7" height="4.7"/>
<rect x="57.1" y="28.8" class="st0" width="4.7" height="4.7"/>
<rect x="33.5" y="28.8" class="st0" width="4.7" height="4.7"/>
<rect x="24.1" y="28.8" class="st0" width="4.7" height="4.7"/>
<rect x="61.8" y="24.1" class="st0" width="4.7" height="4.7"/>
<rect x="52.3" y="24.1" class="st0" width="4.7" height="4.7"/>
<rect x="28.8" y="24.1" class="st0" width="4.7" height="4.7"/>
<rect x="66.5" y="19.4" class="st0" width="4.7" height="4.7"/>
<rect x="47.7" y="19.4" class="st0" width="4.7" height="4.7"/>
<rect x="28.8" y="19.4" class="st0" width="4.7" height="4.7"/>
<rect x="61.8" y="14.7" class="st0" width="4.7" height="4.7"/>
<rect x="52.3" y="14.7" class="st0" width="4.7" height="4.7"/>
<rect x="57.1" y="10" class="st0" width="4.7" height="4.7"/>
</svg>
